Coordinates
version=1
nRows=6
nColumns=63
inDegrees=yes

Units are S.I. units (second, meters, Newtons, ...)
If the header above contains a line with 'inDegrees', this indicates whether rotational values are in degrees (yes) or radians (no).

endheader
time	pelvis_tilt	pelvis_list	pelvis_rotation	pelvis_tx	pelvis_ty	pelvis_tz	hip_flexion_r	hip_adduction_r	hip_rotation_r	knee_angle_r	knee_angle_r_beta	ankle_angle_r	subtalar_angle_r	mtp_angle_r	hip_flexion_l	hip_adduction_l	hip_rotation_l	knee_angle_l	knee_angle_l_beta	ankle_angle_l	subtalar_angle_l	mtp_angle_l	L5_S1_Flex_Ext	L5_S1_Lat_Bending	L5_S1_axial_rotation	L4_L5_Flex_Ext	L4_L5_Lat_Bending	L4_L5_axial_rotation	L3_L4_Flex_Ext	L3_L4_Lat_Bending	L3_L4_axial_rotation	L2_L3_Flex_Ext	L2_L3_Lat_Bending	L2_L3_axial_rotation	L1_L2_Flex_Ext	L1_L2_Lat_Bending	L1_L2_axial_rotation	L1_T12_Flex_Ext	L1_T12_Lat_Bending	L1_T12_axial_rotation	Abs_r3	Abs_r2	Abs_r1	Abs_t1	Abs_t2	neck_flexion	neck_bending	neck_rotation	arm_flex_r	arm_add_r	arm_rot_r	elbow_flex_r	pro_sup_r	wrist_flex_r	wrist_dev_r	arm_flex_l	arm_add_l	arm_rot_l	elbow_flex_l	pro_sup_l	wrist_flex_l	wrist_dev_l
1.283333	3.511455	6.514691	90.659030	0.180747	0.666461	0.700526	0.758474	5.027541	-4.774122	6.025222	0.105160	10.518610	-12.040293	0.000000	-0.040340	-4.720092	-10.649345	7.696502	0.134329	21.008813	10.310621	0.000000	-1.043559	1.232163	6.439179	-1.937993	1.638777	6.841628	-1.714463	2.995882	6.841628	-1.192683	2.995882	5.634282	-0.969049	2.512627	5.231833	-0.596290	1.908621	4.829384	-7.454036	13.938477	35.812782	0.000000	0.000000	2.039194	-6.647904	-35.155063	4.537639	-21.187250	113.783084	-1.138278	-2.771837	-13.881655	-23.659429	64.129532	34.056519	169.642571	-0.050518	0.626281	-73.660104	-24.326399
1.300000	3.118839	4.979734	90.019987	0.182111	0.665878	0.696431	2.184441	4.679171	-3.935871	5.994280	0.104620	10.653175	-12.003439	0.000000	1.041003	-4.311347	-11.599066	7.214989	0.125925	20.647088	10.727808	0.000000	-0.926419	1.196223	5.934450	-1.720452	1.590977	6.305353	-1.522013	2.908497	6.305353	-1.058804	2.908497	5.192644	-0.860272	2.439339	4.821741	-0.529356	1.852950	4.450838	-6.617316	13.531918	33.005631	0.000000	0.000000	2.891326	-9.098605	-31.433262	5.683916	-21.078497	111.155497	0.221668	1.479132	-14.232682	-21.935989	59.395335	29.150839	167.333209	-0.144368	0.587172	-70.467500	-24.480073
1.316667	2.749507	3.392485	89.368113	0.183487	0.664908	0.692325	3.660249	4.372607	-3.057623	5.958856	0.104002	10.812484	-12.046059	0.000000	2.196215	-3.944738	-12.549681	6.768703	0.118136	20.400642	11.223190	0.000000	-0.808954	1.158398	5.372635	-1.502308	1.540670	5.708425	-1.329030	2.816530	5.708425	-0.924553	2.816530	4.701056	-0.751194	2.362206	4.365266	-0.462236	1.794359	4.029476	-5.778275	13.104035	29.880985	0.000000	0.000000	4.213269	-11.225564	-27.278321	6.988730	-21.030061	107.866403	1.834492	5.785831	-14.157446	-20.031388	54.787876	24.011148	163.902870	-0.208874	0.361201	-65.904383	-24.575377
1.333333	2.397412	1.788082	88.733686	0.184833	0.663519	0.688315	5.156513	4.096345	-2.213960	5.933012	0.103551	11.014430	-12.118657	0.000000	3.406672	-3.606846	-13.384410	6.374924	0.111263	20.258412	11.657543	0.000000	-0.693050	1.118141	4.767826	-1.287063	1.487127	5.065815	-1.138612	2.718648	5.065815	-0.792087	2.718648	4.171848	-0.643566	2.280113	3.873858	-0.396009	1.732000	3.575869	-4.950386	12.648633	26.517217	0.000000	0.000000	5.997579	-12.893084	-22.830308	8.395288	-21.011199	104.230639	3.574272	9.837150	-13.451884	-18.059454	50.363166	18.769472	159.469182	-0.175089	-0.294104	-60.350101	-24.534064
1.350000	2.064762	0.212033	88.143298	0.186136	0.661731	0.684461	6.622468	3.850749	-1.415611	5.912982	0.103201	11.233786	-12.266948	0.000000	4.630778	-3.303593	-14.129673	6.035579	0.105341	20.229151	12.083694	0.000000	-0.579353	1.075762	4.140212	-1.075916	1.430763	4.398975	-0.951819	2.615608	4.398975	-0.662142	2.615608	3.622685	-0.537987	2.193694	3.363922	-0.331042	1.666355	3.105159	-4.138259	12.169234	23.026615	0.000000	0.000000	8.157737	-14.030563	-18.291180	9.828266	-21.005483	100.627501	5.356462	13.418913	-12.234066	-16.121047	46.120742	13.566724	153.518055	0.011505	-1.028407	-54.238819	-24.275914
1.366667	1.748585	-1.287180	87.634289	0.187380	0.659586	0.680835	8.003802	3.631905	-0.699400	5.889031	0.102783	11.463655	-12.490363	0.000000	5.832534	-3.033308	-14.776411	5.762251	0.100570	20.320148	12.509955	0.000000	-0.469523	1.031702	3.510540	-0.871952	1.372164	3.729949	-0.771380	2.508481	3.729949	-0.536618	2.508481	3.071723	-0.436000	2.103847	2.852314	-0.268286	1.598107	2.632905	-3.353759	11.670823	19.524570	0.000000	0.000000	10.607273	-14.599831	-13.856820	11.203525	-21.020253	97.081263	7.132460	16.549053	-10.534058	-14.274079	42.061416	8.546997	146.177337	0.312407	-1.943572	-47.906642	-23.577600
